<svg xmlns="http://www.w3.org/2000/svg" xmlns:xlink="http://www.w3.org/1999/xlink" width="500" zoomAndPan="magnify" viewBox="0 0 375 374.999991" height="500" preserveAspectRatio="xMidYMid meet" version="1.0"><defs><g/><clipPath id="18df3ed219"><path d="M 0 26.367188 L 375 26.367188 L 375 348.632812 L 0 348.632812 Z M 0 26.367188 " clip-rule="nonzero"/></clipPath><clipPath id="b1b649e6e4"><path d="M 375 187.5 L 281.25 348.632812 L 93.75 348.632812 L 0 187.5 L 93.75 26.367188 L 281.25 26.367188 Z M 375 187.5 " clip-rule="nonzero"/></clipPath></defs><g clip-path="url(#18df3ed219)"><g clip-path="url(#b1b649e6e4)"><path stroke-linecap="butt" transform="matrix(0.75, 0, 0, 0.75, 0.0000045, 26.367186)" fill="none" stroke-linejoin="miter" d="M 499.999995 214.843753 L 374.999995 429.687503 L 124.999994 429.687503 L -0.000006 214.843753 L 124.999994 0.00000238859 L 374.999995 0.00000238859 Z M 499.999995 214.843753 " stroke="#ffffff" stroke-width="90" stroke-opacity="1" stroke-miterlimit="4"/></g></g><g fill="#ffffff" fill-opacity="1"><g transform="translate(60.222657, 241.749959)"><g><path d="M 6.296875 -48.125 C 6.296875 -55.914062 7.695312 -62.921875 10.5 -69.140625 C 13.300781 -75.367188 17.09375 -80.65625 21.875 -85 C 26.65625 -89.351562 32.210938 -92.691406 38.546875 -95.015625 C 44.890625 -97.335938 51.613281 -98.5 58.71875 -98.5 C 63.6875 -98.5 68.742188 -98.019531 73.890625 -97.0625 C 79.046875 -96.113281 84.175781 -94.382812 89.28125 -91.875 L 85.046875 -70 C 81.035156 -72.1875 77.066406 -73.828125 73.140625 -74.921875 C 69.222656 -76.015625 65.625 -76.5625 62.34375 -76.5625 C 58.375 -76.5625 54.816406 -75.910156 51.671875 -74.609375 C 48.535156 -73.316406 45.875 -71.4375 43.6875 -68.96875 C 41.5 -66.507812 39.820312 -63.523438 38.65625 -60.015625 C 37.5 -56.503906 36.921875 -52.539062 36.921875 -48.125 C 36.921875 -43.707031 37.5 -39.742188 38.65625 -36.234375 C 39.820312 -32.722656 41.5 -29.734375 43.6875 -27.265625 C 45.875 -24.804688 48.535156 -22.925781 51.671875 -21.625 C 54.816406 -20.332031 58.375 -19.6875 62.34375 -19.6875 C 65.625 -19.6875 69.222656 -20.234375 73.140625 -21.328125 C 77.066406 -22.421875 81.035156 -24.0625 85.046875 -26.25 L 89.28125 -4.375 C 84.175781 -1.914062 79.046875 -0.242188 73.890625 0.640625 C 68.742188 1.535156 63.6875 1.984375 58.71875 1.984375 C 51.613281 1.984375 44.890625 0.832031 38.546875 -1.46875 C 32.210938 -3.769531 26.65625 -7.070312 21.875 -11.375 C 17.09375 -15.6875 13.300781 -20.941406 10.5 -27.140625 C 7.695312 -33.335938 6.296875 -40.332031 6.296875 -48.125 Z M 6.296875 -48.125 "/></g></g></g><g fill="#ffffff" fill-opacity="1"><g transform="translate(157.766035, 241.749959)"><g><path d="M 23.453125 1.984375 C 19.304688 1.984375 15.304688 1.6875 11.453125 1.09375 C 7.597656 0.5 4.304688 -0.660156 1.578125 -2.390625 L 1.578125 -21.875 C 4.628906 -20.914062 7.460938 -20.3125 10.078125 -20.0625 C 12.703125 -19.8125 14.972656 -19.6875 16.890625 -19.6875 C 18.941406 -19.6875 20.546875 -20.109375 21.703125 -20.953125 C 22.867188 -21.796875 23.742188 -22.878906 24.328125 -24.203125 C 24.921875 -25.523438 25.285156 -27.015625 25.421875 -28.671875 C 25.566406 -30.335938 25.640625 -31.992188 25.640625 -33.640625 L 25.640625 -96.65625 L 56.265625 -96.65625 L 56.265625 -29.328125 C 56.265625 -23.859375 55.304688 -19.148438 53.390625 -15.203125 C 51.472656 -11.265625 48.976562 -8.019531 45.90625 -5.46875 C 42.832031 -2.914062 39.320312 -1.035156 35.375 0.171875 C 31.4375 1.378906 27.460938 1.984375 23.453125 1.984375 Z M 23.453125 1.984375 "/></g></g></g><g fill="#ffffff" fill-opacity="1"><g transform="translate(225.711458, 241.749959)"><g><path d="M 22.5625 0 L 22.5625 -74.375 L 0.6875 -74.375 L 0.6875 -96.65625 L 75.53125 -96.65625 L 75.53125 -74.375 L 53.1875 -74.375 L 53.1875 0 Z M 22.5625 0 "/></g></g></g></svg>